<svg width="30" height="30" viewBox="0 0 30 30" fill="none" xmlns="http://www.w3.org/2000/svg">
<path d="M7.83211 24.2929C7.44158 24.6834 6.80842 24.6834 6.41789 24.2929L5.70711 23.5821C5.31658 23.1916 5.31658 22.5584 5.70711 22.1679L12.5214 15.3536C12.7167 15.1583 12.7167 14.8417 12.5214 14.6464L5.70711 7.83211C5.31658 7.44158 5.31658 6.80842 5.70711 6.41789L6.41789 5.70711C6.80842 5.31658 7.44158 5.31658 7.83211 5.70711L14.6464 12.5214C14.8417 12.7167 15.1583 12.7167 15.3536 12.5214L22.1679 5.70711C22.5584 5.31658 23.1916 5.31658 23.5821 5.70711L24.2929 6.41789C24.6834 6.80842 24.6834 7.44158 24.2929 7.83211L17.4786 14.6464C17.2833 14.8417 17.2833 15.1583 17.4786 15.3536L24.2929 22.1679C24.6834 22.5584 24.6834 23.1916 24.2929 23.5821L23.5821 24.2929C23.1916 24.6834 22.5584 24.6834 22.1679 24.2929L15.3536 17.4786C15.1583 17.2833 14.8417 17.2833 14.6464 17.4786L7.83211 24.2929Z" fill="#A9A9AC"/>
</svg>
