<svg width="14" height="13" viewBox="0 0 14 13" fill="none" xmlns="http://www.w3.org/2000/svg">
<path d="M3.5 13C3.0875 13 2.73437 12.8531 2.44062 12.5594C2.14687 12.2656 2 11.9125 2 11.5V2.7C2 2.58954 1.91046 2.5 1.8 2.5H1.25C0.835786 2.5 0.5 2.16421 0.5 1.75V1.75C0.5 1.33579 0.835786 1 1.25 1H4.8C4.91046 1 5 0.910457 5 0.8V0.5C5 0.223858 5.22386 0 5.5 0H8.5C8.77614 0 9 0.223858 9 0.5V0.8C9 0.910457 9.08954 1 9.2 1H12.75C13.1642 1 13.5 1.33579 13.5 1.75V1.75C13.5 2.16421 13.1642 2.5 12.75 2.5H12.2C12.0895 2.5 12 2.58954 12 2.7V11.491C12 11.9137 11.8531 12.2708 11.5594 12.5625C11.2656 12.8542 10.9125 13 10.5 13H3.5ZM5 9.5C5 9.77614 5.22386 10 5.5 10H6C6.27614 10 6.5 9.77614 6.5 9.5V4.5C6.5 4.22386 6.27614 4 6 4H5.5C5.22386 4 5 4.22386 5 4.5V9.5ZM7.5 9.5C7.5 9.77614 7.72386 10 8 10H8.5C8.77614 10 9 9.77614 9 9.5V4.5C9 4.22386 8.77614 4 8.5 4H8C7.72386 4 7.5 4.22386 7.5 4.5V9.5Z" fill="#F8F8F8"/>
</svg>
