<svg xmlns="http://www.w3.org/2000/svg" width="150" height="150" fill="none"><path fill="#fff" d="M0 0h150v150H0z"/><path fill="#757575" d="M44.633 80.023V82h-8.754v-1.687l4.14-4.439q.624-.694.984-1.222.36-.535.519-.958.165-.431.166-.817 0-.58-.193-.993a1.44 1.44 0 0 0-.571-.65q-.37-.23-.914-.23-.58 0-1.002.282a1.8 1.8 0 0 0-.633.782q-.21.501-.21 1.134h-2.541q0-1.143.545-2.092a4 4 0 0 1 1.538-1.52q.993-.571 2.355-.571 1.346 0 2.268.439.932.43 1.406 1.248.484.81.484 1.934 0 .632-.202 1.239a5.6 5.6 0 0 1-.58 1.195 9.6 9.6 0 0 1-.897 1.195q-.527.607-1.169 1.257l-2.224 2.496zm3.964-3.85-2.022-.484.73-6.486h7.19v2.048h-5.107l-.317 2.839q.255-.15.774-.317a3.6 3.6 0 0 1 1.16-.175q.932 0 1.652.29t1.222.843q.51.554.773 1.354.264.8.264 1.81 0 .853-.264 1.627-.263.764-.8 1.37a3.7 3.7 0 0 1-1.344.941q-.81.343-1.916.343-.826 0-1.6-.246a4.4 4.4 0 0 1-1.38-.73 3.8 3.8 0 0 1-.975-1.169q-.36-.694-.378-1.582h2.514q.052.546.28.94.238.387.625.598t.905.211q.484 0 .826-.184.343-.185.554-.51.21-.334.307-.773.106-.45.106-.967 0-.52-.123-.94a2 2 0 0 0-.378-.73 1.7 1.7 0 0 0-.65-.475 2.3 2.3 0 0 0-.906-.167q-.703 0-1.09.22a2.6 2.6 0 0 0-.632.5m16.567-1.696v2.214q0 1.441-.308 2.488-.307 1.037-.887 1.705-.571.66-1.363.975a4.7 4.7 0 0 1-1.757.317q-.774 0-1.442-.194a3.6 3.6 0 0 1-1.204-.624 4 4 0 0 1-.914-1.063q-.378-.651-.58-1.547-.202-.897-.202-2.057v-2.214q0-1.442.308-2.47.315-1.037.887-1.697.58-.658 1.371-.966a4.7 4.7 0 0 1 1.758-.317q.774 0 1.433.203.667.192 1.204.606.536.413.914 1.063.378.641.58 1.538.202.888.202 2.04m-2.54 2.548v-2.891q0-.694-.08-1.213a3.6 3.6 0 0 0-.219-.879 1.9 1.9 0 0 0-.369-.598 1.35 1.35 0 0 0-.5-.334 1.8 1.8 0 0 0-.625-.105q-.43 0-.765.167a1.4 1.4 0 0 0-.553.536q-.23.36-.352.967a8 8 0 0 0-.114 1.459v2.891q0 .694.07 1.222.08.528.229.905.158.37.369.607.22.228.5.334.29.105.634.105.42 0 .747-.167.334-.176.562-.545.238-.378.352-.984t.114-1.477m9.923 3.208-1.486-1.432 6.847-6.987 1.486 1.44zm5.37 0-6.847-6.978 1.486-1.441 6.846 6.987zm13.667-11.056V82h-2.531v-9.905l-3.041.966v-1.995l5.3-1.89zm6.548 6.996-2.022-.484.73-6.486h7.189v2.048h-5.106l-.317 2.839q.255-.15.774-.317a3.6 3.6 0 0 1 1.16-.175q.932 0 1.652.29.721.29 1.222.843.51.554.774 1.354.263.8.263 1.81 0 .853-.263 1.627a4.1 4.1 0 0 1-.8 1.37 3.7 3.7 0 0 1-1.345.941q-.809.343-1.916.343-.826 0-1.6-.246a4.4 4.4 0 0 1-1.38-.73 3.8 3.8 0 0 1-.975-1.169q-.36-.694-.378-1.582h2.514q.052.546.28.94.239.387.625.598.387.21.905.211.483 0 .826-.184.343-.185.554-.51.211-.334.308-.773.105-.45.105-.967 0-.52-.123-.94a2 2 0 0 0-.378-.73 1.7 1.7 0 0 0-.65-.475 2.3 2.3 0 0 0-.906-.167q-.703 0-1.09.22a2.6 2.6 0 0 0-.632.5m16.567-1.696v2.214q0 1.441-.307 2.488-.308 1.037-.888 1.705-.571.66-1.362.975a4.7 4.7 0 0 1-1.758.317 5.2 5.2 0 0 1-1.442-.194 3.6 3.6 0 0 1-1.204-.624 4 4 0 0 1-.914-1.063q-.378-.651-.58-1.547-.202-.897-.202-2.057v-2.214q0-1.442.308-2.47.316-1.037.887-1.697.58-.658 1.371-.966a4.7 4.7 0 0 1 1.758-.317q.773 0 1.433.203.668.192 1.204.606.536.413.914 1.063.378.641.58 1.538.202.888.202 2.04m-2.54 2.548v-2.891a8 8 0 0 0-.079-1.213 3.6 3.6 0 0 0-.22-.879 1.8 1.8 0 0 0-.369-.598 1.34 1.34 0 0 0-.501-.334 1.8 1.8 0 0 0-.624-.105q-.43 0-.764.167-.326.167-.554.536-.228.36-.352.967a8 8 0 0 0-.114 1.459v2.891q0 .694.07 1.222.08.528.229.905.157.37.369.607.219.228.501.334.29.105.633.105.421 0 .747-.167.334-.176.562-.545.238-.378.352-.984t.114-1.477"/></svg>