<svg width="32" height="32" viewBox="0 0 32 32" fill="none" xmlns="http://www.w3.org/2000/svg">
<path d="M29.6753 31.0055C29.2848 31.3949 28.6529 31.3946 28.2627 31.005L18.3293 21.0864C18.1495 20.9068 17.8645 20.8921 17.6576 21.0396C16.9224 21.5641 16.0857 21.986 15.1475 22.3054C14.0541 22.6779 12.8786 22.8642 11.6208 22.8642C8.48802 22.8642 5.834 21.7757 3.65872 19.5987C1.48316 17.4218 0.395386 14.7871 0.395386 11.6946C0.395386 8.6018 1.48386 5.96694 3.6608 3.79C5.83775 1.61305 8.47719 0.524582 11.5791 0.524582C14.6811 0.524582 17.3158 1.61305 19.4833 3.79C21.6511 5.96694 22.735 8.60319 22.735 11.6987C22.735 12.931 22.5536 14.0862 22.1908 15.1646C21.8747 16.1042 21.435 16.9779 20.8718 17.7859C20.7285 17.9914 20.7467 18.2716 20.9242 18.4483L30.8933 28.3739C31.2857 28.7646 31.2859 29.3998 30.8938 29.7907L29.6753 31.0055ZM11.5983 19.1912C13.6839 19.1912 15.4493 18.4617 16.8946 17.0025C18.3396 15.5431 19.0621 13.7737 19.0621 11.6946C19.0621 9.61514 18.3387 7.84583 16.8921 6.38667C15.4454 4.92722 13.6808 4.1975 11.5983 4.1975C9.50052 4.1975 7.72108 4.92722 6.25997 6.38667C4.79886 7.84583 4.0683 9.61514 4.0683 11.6946C4.0683 13.7737 4.79802 15.5431 6.25747 17.0025C7.71719 18.4617 9.49747 19.1912 11.5983 19.1912Z" fill="#A9A9AC"/>
</svg>
